<?xml version="1.0" ?><svg viewBox="0 0 512 512" xmlns="http://www.w3.org/2000/svg"><defs><style>.cls-1{fill:#ff5722;stroke:#000;stroke-linecap:round;stroke-linejoin:round;stroke-width:20px;}</style></defs><g data-name="Layer 2" id="Layer_2"><g data-name="groove shark" id="groove_shark"><path class="cls-1" d="M256,10C120.18,10,10,120.14,10,256S120.18,502,256,502,502,391.82,502,256,391.82,10,256,10ZM182.24,121.31c-1.57-.43-5.81-2.37-7-.43l0,4.73c.34,2.9.68,5.76,1,8.62,4.15,34.34-1.92,62.82-12.58,96.18a108.84,108.84,0,0,1-30.08,47.15c-11.53,10.55-28,21.21-44.34,20.45a31.21,31.21,0,0,1-9-1.63c-17.5-5.91-18.51-24.86-18.6-40.38a192.88,192.88,0,0,1,6-49.6c1.27-5,2.8-9.9,4.49-14.79C91.18,136.14,135.46,91,191.05,71.25A194.45,194.45,0,0,1,440,191.64h-.07c1.7,4.89,3.26,9.75,4.55,14.76a197.66,197.66,0,0,1,6,49.63c-.25,31.49-10.36,66.17-49.81,49.51-18.67-7.87-34.26-23.89-45.82-40.07-38.55-67.21-158.81-140.2-172.65-144.16Z"/></g></g></svg>